<?xml version="1.0" encoding="UTF-8" standalone="no"?>
<svg width="250px" height="204px" viewBox="0 0 250 204" version="1.1" xmlns="http://www.w3.org/2000/svg" xmlns:xlink="http://www.w3.org/1999/xlink">
    <g id="social-icons" transform="translate(-622.000000, -298.000000)" fill="#f38181">
      <path d="M700.62,501.59 C794.96,501.59 846.56,423.43 846.56,355.65 C846.56,353.43 846.56,351.22 846.41,349.02 C856.448314,341.759109 865.113555,332.768794 872,322.47 C862.638791,326.618018 852.708293,329.338286 842.54,330.54 C853.24744,324.129821 861.261235,314.04772 865.09,302.17 C855.021575,308.144553 844.006461,312.35512 832.52,314.62 C816.620828,297.713943 791.357194,293.576126 770.895493,304.526799 C750.433792,315.477473 739.86275,338.793257 745.11,361.4 C703.868957,359.332495 665.444758,339.853233 639.4,307.81 C625.786228,331.246447 632.739879,361.228595 655.28,376.28 C647.117412,376.038075 639.132794,373.836132 632,369.86 L632,370.51 C632.006681,394.92593 649.217515,415.955352 673.15,420.79 C665.598696,422.8494 657.675806,423.150443 649.99,421.67 C656.709479,442.564228 675.965746,456.877839 697.91,457.29 C679.74735,471.564319 657.310595,479.313277 634.21,479.29 C630.129036,479.282165 626.052041,479.035075 622,478.55 C645.456359,493.602766 672.749134,501.587169 700.62,501.55" id="twitter_logo"></path>
    </g>
  </g>
</svg>
